<svg width="28" height="26" viewBox="0 0 28 26" fill="none" xmlns="http://www.w3.org/2000/svg">
<path d="M13.6302 6.80396C9.86494 6.80396 6.80176 9.86774 6.80176 13.633C6.80176 17.3983 9.86494 20.4621 13.6302 20.4621C17.3949 20.4621 20.4587 17.3989 20.4587 13.633C20.4587 9.86714 17.3949 6.80396 13.6302 6.80396Z" fill="#805AD5"/>
<path d="M13.6244 4.79581C12.8884 4.79581 12.292 4.19935 12.292 3.46404V1.33237C12.292 0.596457 12.8884 0 13.6244 0C14.3603 0 14.9567 0.596457 14.9567 1.33237V3.46404C14.9567 4.19935 14.3597 4.79581 13.6244 4.79581Z" fill="#805AD5"/>
<path d="M13.6244 26.0004C12.8884 26.0004 12.292 25.4039 12.292 24.6686V22.537C12.292 21.801 12.8884 21.2046 13.6244 21.2046C14.3603 21.2046 14.9567 21.801 14.9567 22.537V24.6686C14.9567 25.4039 14.3597 26.0004 13.6244 26.0004Z" fill="#805AD5"/>
<path d="M19.8752 7.38422C19.3554 6.86383 19.3554 6.02046 19.8752 5.50007L21.3826 3.99262C21.9024 3.47284 22.7464 3.47284 23.2668 3.99262C23.7872 4.51301 23.7872 5.35699 23.2668 5.87678L21.7593 7.38422C21.2396 7.90461 20.3962 7.90461 19.8752 7.38422Z" fill="#805AD5"/>
<path d="M7.37444 19.8802C6.85404 19.3593 6.01067 19.3593 5.49028 19.8802L3.98284 21.3871C3.46305 21.9069 3.46245 22.7515 3.98284 23.2712C4.50323 23.791 5.34721 23.791 5.86699 23.2712L7.37444 21.7632C7.89483 21.2434 7.89483 20.3994 7.37444 19.8802Z" fill="#805AD5"/>
<path d="M22.4727 13.6324C22.4727 12.8965 23.0691 12.3 23.805 12.3H25.9367C26.6726 12.3 27.2691 12.8965 27.2691 13.6324C27.2691 14.3683 26.6726 14.9642 25.9367 14.9642H23.805C23.0691 14.9642 22.4727 14.3683 22.4727 13.6324Z" fill="#805AD5"/>
<path d="M4.79581 13.6324C4.79581 12.8965 4.19935 12.3 3.46344 12.3H1.33237C0.596457 12.3 0 12.8965 0 13.6324C0 14.3683 0.596457 14.9642 1.33237 14.9642H3.46404C4.19935 14.9642 4.79581 14.3683 4.79581 13.6324Z" fill="#805AD5"/>
<path d="M19.8756 19.8793C20.396 19.3596 21.24 19.3596 21.7598 19.8793L23.2672 21.3868C23.7876 21.906 23.7876 22.7505 23.2672 23.2703C22.7469 23.7901 21.9035 23.7901 21.3831 23.2703L19.8756 21.7629C19.3553 21.2425 19.3553 20.3991 19.8756 19.8793Z" fill="#805AD5"/>
<path d="M7.37466 7.38407C7.89505 6.86368 7.89505 6.02031 7.37466 5.49992L5.86722 3.99308C5.34683 3.47269 4.50346 3.47269 3.98307 3.99308C3.46268 4.51286 3.46268 5.35684 3.98307 5.87663L5.49051 7.38407C6.0109 7.90506 6.85427 7.90506 7.37466 7.38407Z" fill="#805AD5"/>
</svg>
