<svg width="163" height="45" viewBox="0 0 163 45" fill="none" xmlns="http://www.w3.org/2000/svg">
<path fill-rule="evenodd" clip-rule="evenodd" d="M34.2763 7.44263C34.9513 7.99279 35.9444 7.89167 36.4945 7.21677C37.0447 6.54187 36.9436 5.54876 36.2687 4.9986C32.9239 2.27204 28.8578 0.578138 24.5665 0.123636C20.2753 -0.330867 15.9445 0.473686 12.1028 2.4391C8.26112 4.40451 5.07466 7.44578 2.93235 11.1917C0.790036 14.9376 -0.215472 19.2262 0.03855 23.534C0.292572 27.8417 1.79514 31.9824 4.36285 35.4506C6.93057 38.9188 10.4524 41.5644 14.4984 43.0647C18.5445 44.565 22.9398 44.855 27.1479 43.8993C31.356 42.9436 35.1949 40.7836 38.196 37.6828C38.8016 37.0571 38.7853 36.059 38.1596 35.4535C37.5339 34.8479 36.5358 34.8642 35.9302 35.4899C33.3549 38.1507 30.0607 40.0043 26.4496 40.8244C22.8385 41.6445 19.0667 41.3957 15.5947 40.1082C12.1227 38.8208 9.10051 36.5505 6.89708 33.5743C4.69365 30.5982 3.40426 27.045 3.18628 23.3483C2.96829 19.6517 3.83115 15.9716 5.66953 12.7571C7.50791 9.54262 10.2423 6.93283 13.539 5.24626C16.8356 3.55968 20.552 2.86927 24.2344 3.25929C27.9169 3.64931 31.4061 5.1029 34.2763 7.44263ZM29.387 13.3392C30.0619 13.8894 31.055 13.7883 31.6052 13.1134C32.1553 12.4385 32.0542 11.4453 31.3793 10.8952C29.1203 9.05372 26.3741 7.9097 23.4759 7.60273C20.5777 7.29577 17.6528 7.83915 15.0582 9.16655C12.4636 10.494 10.3115 12.548 8.86461 15.0779C7.41774 17.6078 6.73864 20.5042 6.9102 23.4136C7.08176 26.323 8.09656 29.1195 9.83075 31.4619C11.5649 33.8042 13.9435 35.591 16.6761 36.6043C19.4088 37.6176 22.3773 37.8134 25.2193 37.168C28.0614 36.5225 30.6541 35.0637 32.681 32.9695C33.2866 32.3438 33.2703 31.3457 32.6446 30.7401C32.0189 30.1346 31.0208 30.1509 30.4152 30.7765C28.8141 32.4308 26.766 33.5832 24.521 34.0931C22.2759 34.603 19.931 34.4482 17.7724 33.6478C15.6138 32.8474 13.7349 31.4359 12.365 29.5856C10.9951 27.7353 10.1934 25.5262 10.0579 23.228C9.9224 20.9298 10.4588 18.6418 11.6018 16.6433C12.7447 14.6448 14.4447 13.0223 16.4943 11.9737C18.5439 10.9251 20.8544 10.4959 23.1438 10.7384C25.4332 10.9809 27.6025 11.8846 29.387 13.3392Z" fill="url(#paint0_linear_1_6212)"/>
<path d="M21.82 30.2844C19.6788 30.2844 17.9059 29.5992 16.5013 28.2289C15.131 26.8585 14.4458 25.1113 14.4458 22.9873C14.4458 20.8633 15.1395 19.1161 16.527 17.7457C17.9316 16.3754 19.7302 15.6902 21.9228 15.6902C23.3616 15.6902 24.6549 16.0328 25.8025 16.718C26.9673 17.386 27.8324 18.3196 28.3976 19.5186L25.6741 20.9832C24.7834 19.51 23.55 18.7735 21.9741 18.7735C20.7751 18.7735 19.773 19.176 18.9679 19.9811C18.18 20.7691 17.786 21.7711 17.786 22.9873C17.786 24.1864 18.1714 25.1884 18.9422 25.9935C19.7131 26.7986 20.6894 27.2011 21.8714 27.2011C22.6422 27.2011 23.3702 27.0041 24.0554 26.6102C24.7577 26.1991 25.2801 25.668 25.6227 25.0171L28.3463 26.6102C27.7296 27.7407 26.8389 28.64 25.6741 29.308C24.5264 29.9589 23.2417 30.2844 21.82 30.2844ZM29.8265 22.9873C29.8265 20.9318 30.5202 19.2017 31.9077 17.7971C33.3294 16.3754 35.1194 15.6645 37.2777 15.6645C39.4532 15.6645 41.2346 16.3754 42.6221 17.7971C44.0267 19.2017 44.729 20.9318 44.729 22.9873C44.729 25.0771 44.0267 26.8243 42.6221 28.2289C41.2346 29.6335 39.4532 30.3358 37.2777 30.3358C35.1023 30.3358 33.3123 29.6335 31.9077 28.2289C30.5202 26.8243 29.8265 25.0771 29.8265 22.9873ZM41.3631 22.9873C41.3631 21.8054 40.9691 20.8119 40.1812 20.0068C39.3761 19.1846 38.4083 18.7735 37.2777 18.7735C36.1472 18.7735 35.1794 19.1846 34.3743 20.0068C33.5864 20.8119 33.1924 21.8054 33.1924 22.9873C33.1924 24.1864 33.5864 25.1884 34.3743 25.9935C35.1794 26.8157 36.1472 27.2268 37.2777 27.2268C38.4083 27.2268 39.3761 26.8157 40.1812 25.9935C40.9691 25.1884 41.3631 24.1864 41.3631 22.9873ZM49.1315 14.3541C48.5148 14.3541 48.001 14.1571 47.5899 13.7632C47.1787 13.3692 46.9732 12.8639 46.9732 12.2472C46.9732 11.6477 47.1787 11.1509 47.5899 10.757C48.0181 10.3459 48.532 10.1403 49.1315 10.1403C49.731 10.1403 50.2278 10.3459 50.6217 10.757C51.0329 11.1509 51.2384 11.6477 51.2384 12.2472C51.2384 12.8639 51.0329 13.3692 50.6217 13.7632C50.2278 14.1571 49.731 14.3541 49.1315 14.3541ZM50.7759 16.0242V29.9761H47.41V16.0242H50.7759ZM57.4485 29.9761H54.1083V16.0242H57.3971V17.977C57.774 17.2575 58.3478 16.6923 59.1186 16.2812C59.8895 15.8701 60.7802 15.6645 61.7908 15.6645C63.3153 15.6645 64.6086 16.1698 65.6706 17.1805C66.7326 18.1911 67.2636 19.6214 67.2636 21.4714V29.9761H63.8977V22.3963C63.8977 21.2487 63.6236 20.3494 63.0755 19.6985C62.5274 19.0476 61.7822 18.7221 60.8401 18.7221C59.8466 18.7221 59.033 19.0733 58.3992 19.7756C57.7654 20.4607 57.4485 21.3515 57.4485 22.4477V29.9761ZM79.1307 26.5331L80.1841 29.1539C79.0878 29.9247 77.7432 30.3101 76.1501 30.3101C72.9641 30.3101 71.3711 28.4944 71.3711 24.863V18.8506H69.0586V16.0242H71.4224V11.091H74.737V16.0242H79.4133V18.8506H74.737V24.7345C74.737 26.4132 75.4136 27.2525 76.7668 27.2525C77.5548 27.2525 78.3427 27.0127 79.1307 26.5331ZM85.3004 29.9761H81.9602V16.0242H85.172V17.9513C86.0284 16.4268 87.3217 15.6645 89.0517 15.6645C89.6341 15.6645 90.1908 15.7587 90.7219 15.9471L90.4392 19.1589C89.8397 18.9705 89.3001 18.8763 88.8205 18.8763C87.7414 18.8763 86.8849 19.2445 86.2511 19.9811C85.6173 20.7005 85.3004 21.7626 85.3004 23.1672V29.9761ZM102.787 17.7971V16.0242H105.973V29.9761H102.787V28.2546C101.57 29.6249 100.054 30.3101 98.2388 30.3101C96.2346 30.3101 94.5816 29.6078 93.2798 28.2032C91.978 26.7986 91.3271 25.0428 91.3271 22.9359C91.3271 20.829 91.978 19.0989 93.2798 17.7457C94.5988 16.3754 96.2518 15.6902 98.2388 15.6902C100.02 15.6902 101.536 16.3925 102.787 17.7971ZM102.864 22.9873C102.864 21.8054 102.478 20.8033 101.707 19.9811C100.937 19.1589 99.9517 18.7478 98.7526 18.7478C97.5536 18.7478 96.5687 19.1589 95.7978 19.9811C95.0441 20.8204 94.6673 21.8225 94.6673 22.9873C94.6673 24.1692 95.0441 25.1799 95.7978 26.0192C96.5687 26.8414 97.5536 27.2525 98.7526 27.2525C99.9517 27.2525 100.937 26.8414 101.707 26.0192C102.478 25.197 102.864 24.1864 102.864 22.9873ZM116.015 30.2844C113.873 30.2844 112.101 29.5992 110.696 28.2289C109.326 26.8585 108.64 25.1113 108.64 22.9873C108.64 20.8633 109.334 19.1161 110.722 17.7457C112.126 16.3754 113.925 15.6902 116.117 15.6902C117.556 15.6902 118.849 16.0328 119.997 16.718C121.162 17.386 122.027 18.3196 122.592 19.5186L119.869 20.9832C118.978 19.51 117.745 18.7735 116.169 18.7735C114.97 18.7735 113.968 19.176 113.163 19.9811C112.375 20.7691 111.981 21.7711 111.981 22.9873C111.981 24.1864 112.366 25.1884 113.137 25.9935C113.908 26.7986 114.884 27.2011 116.066 27.2011C116.837 27.2011 117.565 27.0041 118.25 26.6102C118.952 26.1991 119.475 25.668 119.817 25.0171L122.541 26.6102C121.924 27.7407 121.033 28.64 119.869 29.308C118.721 29.9589 117.436 30.2844 116.015 30.2844ZM138.152 29.9761H133.989L129.21 23.8866L128.182 24.8116V29.9761H124.842V10.4486H128.182V21.0089L133.552 16.0242H137.818L131.523 21.7797L138.152 29.9761Z" fill="#C64DFF"/>
<path d="M150.31 17.7971V16.0242H153.497V29.9761H150.31V28.2546C149.094 29.6249 147.578 30.3101 145.763 30.3101C143.758 30.3101 142.106 29.6078 140.804 28.2032C139.502 26.7986 138.851 25.0428 138.851 22.9359C138.851 20.829 139.502 19.0989 140.804 17.7457C142.123 16.3754 143.776 15.6902 145.763 15.6902C147.544 15.6902 149.06 16.3925 150.31 17.7971ZM150.388 22.9873C150.388 21.8054 150.002 20.8033 149.231 19.9811C148.46 19.1589 147.476 18.7478 146.277 18.7478C145.077 18.7478 144.093 19.1589 143.322 19.9811C142.568 20.8204 142.191 21.8225 142.191 22.9873C142.191 24.1692 142.568 25.1799 143.322 26.0192C144.093 26.8414 145.077 27.2525 146.277 27.2525C147.476 27.2525 148.46 26.8414 149.231 26.0192C150.002 25.197 150.388 24.1864 150.388 22.9873ZM158.682 14.3541C158.066 14.3541 157.552 14.1571 157.141 13.7632C156.73 13.3692 156.524 12.8639 156.524 12.2472C156.524 11.6477 156.73 11.1509 157.141 10.757C157.569 10.3459 158.083 10.1403 158.682 10.1403C159.282 10.1403 159.779 10.3459 160.173 10.757C160.584 11.1509 160.789 11.6477 160.789 12.2472C160.789 12.8639 160.584 13.3692 160.173 13.7632C159.779 14.1571 159.282 14.3541 158.682 14.3541ZM160.327 16.0242V29.9761H156.961V16.0242H160.327Z" fill="#5082FC"/>
<defs>
<linearGradient id="paint0_linear_1_6212" x1="19.317" y1="5.80646" x2="40.37" y2="38.2269" gradientUnits="userSpaceOnUse">
<stop offset="0.0416667" stop-color="#C241FF"/>
<stop offset="1" stop-color="#5082FC"/>
</linearGradient>
</defs>
</svg>
